# xmcd CD database file
#
# Track frame offsets:
#	150
#	18076
#	35138
#	55088
#	81338
#	97538
#	119214
#	137440
#	158965
#	185928
#
# Disc length: 2715 seconds
#
# Revision: 1
# Processed by: cddbd v1.5.1PL0 Copyright (c) Steve Scherf et al.
# Submitted via: CDex 1.51
#
DISCID=820a990a
DTITLE=haccis clover - 桜梅桃李
DYEAR=2004
DGENRE=JPop
TTITLE0=パイナップルリレー
TTITLE1=春色ロマンス
TTITLE2=小鳥と五線譜
TTITLE3=憧憬
TTITLE4=ぽとん ぽとん
TTITLE5=緑ネムル森のあとに…
TTITLE6=ミズクラウン
TTITLE7=たびだちの時
TTITLE8=冬のよる
TTITLE9=ハニイ☆B
EXTD=YEAR: 2004
EXTT0=
EXTT1=
EXTT2=
EXTT3=
EXTT4=
EXTT5=
EXTT6=
EXTT7=
EXTT8=
EXTT9=
PLAYORDER=
